<svg id="visual" viewBox="0 0 900 600" width="900" height="600" xmlns="http://www.w3.org/2000/svg" xmlns:xlink="http://www.w3.org/1999/xlink" version="1.1"><rect x="0" y="0" width="900" height="600" fill="#001220"></rect><defs><linearGradient id="grad1_0" x1="33.3%" y1="0%" x2="100%" y2="100%"><stop offset="20%" stop-color="#5955bf" stop-opacity="1"></stop><stop offset="80%" stop-color="#5955bf" stop-opacity="1"></stop></linearGradient></defs><defs><linearGradient id="grad1_1" x1="33.3%" y1="0%" x2="100%" y2="100%"><stop offset="20%" stop-color="#5955bf" stop-opacity="1"></stop><stop offset="80%" stop-color="#1a438b" stop-opacity="1"></stop></linearGradient></defs><defs><linearGradient id="grad1_2" x1="33.3%" y1="0%" x2="100%" y2="100%"><stop offset="20%" stop-color="#002c54" stop-opacity="1"></stop><stop offset="80%" stop-color="#1a438b" stop-opacity="1"></stop></linearGradient></defs><defs><linearGradient id="grad1_3" x1="33.3%" y1="0%" x2="100%" y2="100%"><stop offset="20%" stop-color="#002c54" stop-opacity="1"></stop><stop offset="80%" stop-color="#001220" stop-opacity="1"></stop></linearGradient></defs><defs><linearGradient id="grad2_0" x1="0%" y1="0%" x2="66.7%" y2="100%"><stop offset="20%" stop-color="#5955bf" stop-opacity="1"></stop><stop offset="80%" stop-color="#5955bf" stop-opacity="1"></stop></linearGradient></defs><defs><linearGradient id="grad2_1" x1="0%" y1="0%" x2="66.7%" y2="100%"><stop offset="20%" stop-color="#1a438b" stop-opacity="1"></stop><stop offset="80%" stop-color="#5955bf" stop-opacity="1"></stop></linearGradient></defs><defs><linearGradient id="grad2_2" x1="0%" y1="0%" x2="66.7%" y2="100%"><stop offset="20%" stop-color="#1a438b" stop-opacity="1"></stop><stop offset="80%" stop-color="#002c54" stop-opacity="1"></stop></linearGradient></defs><defs><linearGradient id="grad2_3" x1="0%" y1="0%" x2="66.7%" y2="100%"><stop offset="20%" stop-color="#001220" stop-opacity="1"></stop><stop offset="80%" stop-color="#002c54" stop-opacity="1"></stop></linearGradient></defs><g transform="translate(900, 0)"><path d="M0 459.7C-38.3 424.6 -76.6 389.5 -122.1 375.7C-167.6 361.9 -220.3 369.4 -252.7 347.9C-285.2 326.4 -297.5 275.9 -329.3 239.2C-361 202.5 -412.2 179.6 -437.2 142.1C-462.2 104.5 -460.9 52.2 -459.7 0L0 0Z" fill="#001f39"></path><path d="M0 344.8C-28.7 318.4 -57.4 292.1 -91.5 281.8C-125.7 271.4 -165.2 277 -189.6 260.9C-213.9 244.8 -223.1 206.9 -247 179.4C-270.8 151.9 -309.2 134.7 -327.9 106.5C-346.6 78.4 -345.7 39.2 -344.8 0L0 0Z" fill="#00376f"></path><path d="M0 229.9C-19.1 212.3 -38.3 194.7 -61 187.8C-83.8 180.9 -110.1 184.7 -126.4 173.9C-142.6 163.2 -148.8 138 -164.6 119.6C-180.5 101.3 -206.1 89.8 -218.6 71C-231.1 52.2 -230.5 26.1 -229.9 0L0 0Z" fill="#384da5"></path><path d="M0 114.9C-9.6 106.1 -19.1 97.4 -30.5 93.9C-41.9 90.5 -55.1 92.3 -63.2 87C-71.3 81.6 -74.4 69 -82.3 59.8C-90.3 50.6 -103.1 44.9 -109.3 35.5C-115.5 26.1 -115.2 13.1 -114.9 0L0 0Z" fill="#5955bf"></path></g><g transform="translate(0, 600)"><path d="M0 -459.7C38.4 -425.9 76.9 -392.2 123.3 -379.5C169.7 -366.8 224.1 -375.2 256.3 -352.7C288.4 -330.3 298.4 -277 329.3 -239.2C360.2 -201.5 412 -179.3 437.2 -142.1C462.4 -104.8 461.1 -52.4 459.7 0L0 0Z" fill="#001f39"></path><path d="M0 -344.8C28.8 -319.4 57.7 -294.1 92.5 -284.6C127.3 -275.1 168.1 -281.4 192.2 -264.5C216.3 -247.7 223.8 -207.7 247 -179.4C270.1 -151.1 309 -134.5 327.9 -106.5C346.8 -78.6 345.8 -39.3 344.8 0L0 0Z" fill="#00376f"></path><path d="M0 -229.9C19.2 -213 38.4 -196.1 61.6 -189.7C84.9 -183.4 112.1 -187.6 128.1 -176.4C144.2 -165.1 149.2 -138.5 164.6 -119.6C180.1 -100.7 206 -89.7 218.6 -71C231.2 -52.4 230.5 -26.2 229.9 0L0 0Z" fill="#384da5"></path><path d="M0 -114.9C9.6 -106.5 19.2 -98 30.8 -94.9C42.4 -91.7 56 -93.8 64.1 -88.2C72.1 -82.6 74.6 -69.2 82.3 -59.8C90 -50.4 103 -44.8 109.3 -35.5C115.6 -26.2 115.3 -13.1 114.9 0L0 0Z" fill="#5955bf"></path></g></svg>